<svg xmlns="http://www.w3.org/2000/svg" width="1200" height="760" viewBox="0 0 1200 760" role="img" aria-labelledby="title desc">
  <title id="title">Aperçu de la chaîne YouTube The AI Corner by FikolasAI Academy</title>
  <desc id="desc">Visuel de type capture d’écran représentant la chaîne YouTube de FikolasAI avec plusieurs épisodes IA.</desc>
  <defs>
    <linearGradient id="bg" x1="0" y1="0" x2="1" y2="1"><stop offset="0" stop-color="#090d1b"/><stop offset="1" stop-color="#151027"/></linearGradient>
    <linearGradient id="purple" x1="0" y1="0" x2="1" y2="1"><stop offset="0" stop-color="#7c3aed"/><stop offset="1" stop-color="#c084fc"/></linearGradient>
    <filter id="shadow" x="-20%" y="-20%" width="140%" height="140%"><feDropShadow dx="0" dy="22" stdDeviation="20" flood-color="#000" flood-opacity="0.35"/></filter>
  </defs>
  <rect width="1200" height="760" rx="34" fill="url(#bg)"/>
  <rect x="38" y="34" width="1124" height="692" rx="28" fill="#0f172a" stroke="rgba(255,255,255,.16)"/>
  <circle cx="142" cy="132" r="64" fill="#f8fafc"/>
  <text x="142" y="122" text-anchor="middle" font-family="Arial, sans-serif" font-size="26" font-weight="800" fill="#111827">fikolasAI</text>
  <text x="142" y="152" text-anchor="middle" font-family="Arial, sans-serif" font-size="16" fill="#374151">Academy</text>
  <text x="232" y="116" font-family="Arial, sans-serif" font-size="42" font-weight="800" fill="#fff">The AI Corner by FikolasAI Academy</text>
  <text x="232" y="158" font-family="Arial, sans-serif" font-size="22" fill="#cbd5e1">Podcast IA · conversations métier · cas concrets</text>
  <rect x="232" y="188" width="156" height="42" rx="21" fill="#27272a"/><text x="310" y="216" text-anchor="middle" font-family="Arial, sans-serif" font-size="17" font-weight="700" fill="#fff">Vidéos</text>
  <rect x="414" y="188" width="126" height="42" rx="21" fill="#18181b"/><text x="477" y="216" text-anchor="middle" font-family="Arial, sans-serif" font-size="17" fill="#cbd5e1">Posts</text>
  <g filter="url(#shadow)">
    <g transform="translate(74 288)"><rect width="320" height="190" rx="14" fill="url(#purple)"/><rect width="320" height="190" rx="14" fill="rgba(0,0,0,.12)"/><text x="24" y="42" font-family="Arial" font-size="18" font-weight="800" fill="#fff">PODCAST</text><text x="24" y="94" font-family="Arial" font-size="28" font-weight="900" fill="#fff">IA &amp;</text><text x="24" y="128" font-family="Arial" font-size="28" font-weight="900" fill="#fff">TRANSMISSION</text><rect x="220" y="144" width="76" height="24" rx="6" fill="#111827"/><text x="258" y="162" text-anchor="middle" font-family="Arial" font-size="14" fill="#fff">59:18</text></g>
    <g transform="translate(440 288)"><rect width="320" height="190" rx="14" fill="url(#purple)"/><rect width="320" height="190" rx="14" fill="rgba(0,0,0,.12)"/><text x="24" y="42" font-family="Arial" font-size="18" font-weight="800" fill="#fff">PODCAST</text><text x="24" y="94" font-family="Arial" font-size="28" font-weight="900" fill="#fff">IA &amp;</text><text x="24" y="128" font-family="Arial" font-size="28" font-weight="900" fill="#fff">AGRICULTURE</text><rect x="214" y="144" width="82" height="24" rx="6" fill="#111827"/><text x="255" y="162" text-anchor="middle" font-family="Arial" font-size="14" fill="#fff">1:01:00</text></g>
    <g transform="translate(806 288)"><rect width="320" height="190" rx="14" fill="url(#purple)"/><rect width="320" height="190" rx="14" fill="rgba(0,0,0,.12)"/><text x="24" y="42" font-family="Arial" font-size="18" font-weight="800" fill="#fff">PODCAST</text><text x="24" y="94" font-family="Arial" font-size="28" font-weight="900" fill="#fff">IA &amp;</text><text x="24" y="128" font-family="Arial" font-size="28" font-weight="900" fill="#fff">MARKETING</text><rect x="214" y="144" width="82" height="24" rx="6" fill="#111827"/><text x="255" y="162" text-anchor="middle" font-family="Arial" font-size="14" fill="#fff">1:03:36</text></g>
  </g>
  <text x="74" y="542" font-family="Arial" font-size="24" font-weight="800" fill="#fff">Exemples visibles : IA, agriculture, marketing digital, transmission, produits innovants.</text>
  <text x="74" y="586" font-family="Arial" font-size="20" fill="#cbd5e1">Un signal public autour de l’IA appliquée à des métiers et secteurs concrets.</text>
  <rect x="74" y="626" width="238" height="52" rx="14" fill="#f4c76b"/><text x="193" y="660" text-anchor="middle" font-family="Arial" font-size="18" font-weight="800" fill="#111827">Voir la chaîne</text>
</svg>
